<svg width="36" height="36" viewBox="0 0 36 36" fill="none" xmlns="http://www.w3.org/2000/svg">
<path d="M18 19V13M18 13L15 16M18 13L21 16M24 8H25C25.2652 8 25.5196 8.10536 25.7071 8.29289C25.8946 8.48043 26 8.73478 26 9V27C26 27.2652 25.8946 27.5196 25.7071 27.7071C25.5196 27.8946 25.2652 28 25 28H12.5C11.837 28 11.2011 27.7366 10.7322 27.2678C10.2634 26.7989 10 26.163 10 25.5M10 25.5C10 24.837 10.2634 24.2011 10.7322 23.7322C11.2011 23.2634 11.837 23 12.5 23H26M10 25.5V10.5C10 9.83696 10.2634 9.20107 10.7322 8.73223C11.2011 8.26339 11.837 8 12.5 8M15 11L18 8L21 11" stroke="#8E58BF" stroke-width="2" stroke-linecap="round" stroke-linejoin="round"/>
</svg>
